<?xml version="1.0" encoding="UTF-8" standalone="no"?>
<svg width="378px" height="378px" viewBox="0 0 378 378" version="1.1" xmlns="http://www.w3.org/2000/svg" xmlns:xlink="http://www.w3.org/1999/xlink">
    <!-- Generator: Sketch 3.6.1 (26313) - http://www.bohemiancoding.com/sketch -->
    <title>Logo mark black</title>
    <desc>Created with Sketch.</desc>
    <defs></defs>
    <g id="Page-1" stroke="none" stroke-width="1" fill="none" fill-rule="evenodd">
        <g id="Logo-mark-black" fill="#232729">
            <g id="Mask-+-Fill-10" transform="translate(94.000000, 94.000000)">
                <path d="M122.194111,99.2569201 L140.980015,124.11059 C142.537824,126.174538 142.624804,129.600798 141.17398,131.740575 L140.2259,133.136007 C138.780295,135.271426 135.871689,138.238352 133.765038,139.733146 L131.507041,141.322072 C129.407348,142.812508 126.002088,142.760212 123.950233,141.199177 L99.1409758,122.349087 C97.0882517,120.789795 93.7264812,120.789795 91.6737572,122.349087 L66.8636297,141.199177 C64.8117754,142.760212 61.3908586,142.836913 59.2728997,141.376983 L57.6315903,140.248261 C55.5153709,138.781359 52.5658848,135.849297 51.0907068,133.733924 L49.6746752,131.700482 C48.2021066,129.590338 48.2656019,126.174538 49.8173221,124.11059 L68.6275807,99.2447177 C70.1793009,97.1816408 70.1793009,93.8172654 68.6275807,91.7559317 L49.8173221,66.8830866 C48.2656019,64.8200098 48.2055858,61.4155407 49.6929409,59.3053975 L51.2916303,57.0418526 C52.772027,54.932581 55.7328205,52.0170795 57.8629566,50.5693521 L59.2607225,49.6184366 C61.3908586,48.1628649 64.8117754,48.2578693 66.8636297,49.8119318 L91.6737572,68.6620219 C93.7264812,70.2230573 97.0882517,70.2230573 99.1409758,68.6620219 L123.950233,49.8119318 C126.002088,48.2578693 129.496068,48.0513001 131.719272,49.3639295 L134.313881,50.8996884 C136.539694,52.2123178 139.376107,55.1374069 140.626877,57.3974654 L141.542774,59.0508903 C142.785716,61.3048475 142.537824,64.8391849 140.980015,66.9022618 L122.194111,91.7681341 C120.636302,93.8303394 120.636302,97.1982012 122.194111,99.2569201 L122.194111,99.2569201 Z M95.7139704,0.0313775948 C43.2338186,0.0313775948 0.693722009,42.660455 0.693722009,95.2423312 C0.693722009,147.832052 43.2338186,190.466359 95.7139704,190.466359 C148.194122,190.466359 190.735089,147.832052 190.735089,95.2423312 C190.735089,42.660455 148.194122,0.0313775948 95.7139704,0.0313775948 L95.7139704,0.0313775948 Z" id="Fill-10"></path>
            </g>
        </g>
    </g>
</svg>