<?xml version="1.0" encoding="UTF-8" standalone="no"?>
<svg width="378px" height="378px" viewBox="0 0 378 378" version="1.1" xmlns="http://www.w3.org/2000/svg" xmlns:xlink="http://www.w3.org/1999/xlink">
    <!-- Generator: Sketch 3.6.1 (26313) - http://www.bohemiancoding.com/sketch -->
    <title>Logo stacked reverse white</title>
    <desc>Created with Sketch.</desc>
    <defs></defs>
    <g id="Page-1" stroke="none" stroke-width="1" fill="none" fill-rule="evenodd">
        <g id="Logo-stacked-reverse-white" fill="#FFFFFF">
            <g id="Mask-+-Fill-10" transform="translate(88.000000, 87.000000)">
                <path d="M0,161.027284 C0,158.124341 2.29083476,155.828761 5.18893447,155.828761 C8.08587749,155.828761 10.3778689,158.124341 10.3778689,161.027284 L10.3778689,198.707591 C10.3778689,201.611114 8.08587749,203.907273 5.18893447,203.907273 C2.29083476,203.907273 0,201.611114 0,198.707591 L0,161.027284 Z M22.1703761,161.432966 C22.1703761,158.528864 24.4617892,156.233284 27.3587322,156.233284 L53.7753362,156.233284 C56.4033476,156.233284 58.4917607,158.326602 58.4917607,160.959477 C58.4917607,163.593511 56.4033476,165.68625 53.7753362,165.68625 L32.5476667,165.68625 L32.5476667,175.748318 L50.7424815,175.748318 C53.3704929,175.748318 55.4594843,177.841636 55.4594843,180.47567 C55.4594843,183.109125 53.3704929,185.201284 50.7424815,185.201284 L32.5476667,185.201284 L32.5476667,198.707591 C32.5476667,201.611114 30.2568319,203.907273 27.3587322,203.907273 C24.4617892,203.907273 22.1703761,201.611114 22.1703761,198.707591 L22.1703761,161.432966 Z M66.8477265,161.027284 C66.8477265,158.124341 69.1385613,155.828761 72.0372393,155.828761 C74.9341823,155.828761 77.2255954,158.124341 77.2255954,161.027284 L77.2255954,198.707591 C77.2255954,201.611114 74.9341823,203.907273 72.0372393,203.907273 C69.1385613,203.907273 66.8477265,201.611114 66.8477265,198.707591 L66.8477265,161.027284 Z M118.363459,180.14533 L133.141396,165.336784 C135.206675,163.268386 135.206675,159.912818 133.141396,157.842682 C131.077852,155.773125 127.729798,155.773125 125.664519,157.842682 L110.885425,172.652386 L96.1069088,157.842682 C94.0416296,155.773125 90.6941538,155.773125 88.629453,157.842682 C86.5630171,159.912818 86.5630171,163.266648 88.629453,165.336784 L103.40739,180.145909 L88.629453,194.953875 C86.5630171,197.024011 86.5630171,200.37842 88.629453,202.447977 C89.6612251,203.483045 91.0145584,204 92.3678917,204 C93.7206467,204 95.0751368,203.483045 96.1069088,202.447977 L110.885425,187.638852 L125.663362,202.447977 C126.696291,203.483045 128.050202,204 129.403536,204 C130.755712,204 132.110781,203.483045 133.141396,202.447977 C135.206675,200.37842 135.206675,197.024011 133.141396,194.953875 L118.363459,180.14533 Z M144.545832,161.027284 C144.545832,158.124341 146.836667,155.828761 149.734766,155.828761 C152.631709,155.828761 154.923701,158.124341 154.923701,161.027284 L154.923701,198.707591 C154.923701,201.611114 152.631709,203.907273 149.734766,203.907273 C146.836667,203.907273 144.545832,201.611114 144.545832,198.707591 L144.545832,161.027284 Z M177.700764,165.821864 L167.72716,165.821864 C165.099726,165.821864 162.943068,163.661318 162.943068,161.027284 C162.943068,158.394409 165.099726,156.233284 167.72716,156.233284 L198.051658,156.233284 C200.679091,156.233284 202.835749,158.394409 202.835749,161.027284 C202.835749,163.661318 200.679091,165.821864 198.051658,165.821864 L188.077476,165.821864 L188.077476,198.707591 C188.077476,201.611114 185.786641,203.907273 182.889698,203.907273 C179.991598,203.907273 177.700764,201.611114 177.700764,198.707591 L177.700764,165.821864 Z" id="Mask"></path>
                <path d="M119.249487,65.9980568 L131.740638,82.5237955 C132.776459,83.8961591 132.834293,86.1743523 131.86961,87.5971364 L131.239211,88.5249886 C130.277997,89.944875 128.344003,91.9176477 126.943245,92.9115682 L125.441855,93.9680795 C124.045724,94.9591023 121.781493,94.9243295 120.417171,93.8863636 L103.920963,81.3525341 C102.556063,80.3157273 100.320749,80.3157273 98.955849,81.3525341 L82.4590627,93.8863636 C81.0947407,94.9243295 78.8200997,94.9753295 77.4118234,94.0045909 L76.3204815,93.2540795 C74.9133618,92.2787045 72.9521852,90.3291136 71.9713077,88.9225568 L71.0297578,87.5704773 C70.0506154,86.1673977 70.0928348,83.8961591 71.1246068,82.5237955 L83.6319516,65.9899432 C84.6637236,64.6181591 84.6637236,62.3811136 83.6319516,61.0104886 L71.1246068,44.472 C70.0928348,43.1002159 70.0529288,40.8365114 71.0419031,39.4334318 L72.104906,37.9283523 C73.0892536,36.5258523 75.0579487,34.5872727 76.4743219,33.6246477 L77.4037265,32.9923636 C78.8200997,32.0245227 81.0947407,32.0876932 82.4590627,33.1210227 L98.955849,45.6548523 C100.320749,46.6928182 102.556063,46.6928182 103.920963,45.6548523 L120.417171,33.1210227 C121.781493,32.0876932 124.104715,31.9503409 125.582972,32.8231364 L127.308182,33.8442955 C128.788174,34.7170909 130.674165,36.6620455 131.505829,38.1648068 L132.114829,39.2642045 C132.941288,40.7629091 132.776459,43.1129659 131.740638,44.48475 L119.249487,61.0186023 C118.213667,62.3898068 118.213667,64.6291705 119.249487,65.9980568 L119.249487,65.9980568 Z M101.642274,0.0208636364 C66.747094,0.0208636364 38.4612707,28.3658523 38.4612707,63.3286705 C38.4612707,98.2967045 66.747094,126.64517 101.642274,126.64517 C136.537453,126.64517 164.823855,98.2967045 164.823855,63.3286705 C164.823855,28.3658523 136.537453,0.0208636364 101.642274,0.0208636364 L101.642274,0.0208636364 Z" id="Fill-10"></path>
            </g>
        </g>
    </g>
</svg>